<svg width="28" viewBox="0 0 94 52" fill="none" xmlns="http://www.w3.org/2000/svg"><g clip-path="url(#clip0)"><path fill-rule="evenodd" clip-rule="evenodd" d="M28.1467 28.9028L15.7216 37.6038L15.7215 37.6039C15.0001 38.109 14.2489 38.5398 13.4769 38.8978C14.2489 38.5398 15.0002 38.109 15.7216 37.6038M12.3132 39.3771C12.3038 39.3805 12.2945 39.3839 12.2852 39.3872L31.2893 50.3593C35.3574 52.708 40.5591 51.3142 42.9078 47.2461C45.2564 43.1781 43.8626 37.9764 39.7946 35.6277L28.1467 28.9028" fill="#F0402C" data-darkreader-inline-fill="" style="--darkreader-inline-fill: #f14e3c;"></path><path fill-rule="evenodd" clip-rule="evenodd" d="M4.62727 19.6601L30.5043 1.5391C34.352 -1.15534 39.6555 -0.220436 42.3499 3.62727C45.0444 7.47498 44.1095 12.7784 40.2617 15.4729L14.3847 33.5938C10.537 36.2883 5.23354 35.3534 2.5391 31.5057C-0.155343 27.658 0.779564 22.3545 4.62727 19.6601Z" fill="#F0402C" data-darkreader-inline-fill="" style="--darkreader-inline-fill: #f14e3c;"></path><path fill-rule="evenodd" clip-rule="evenodd" d="M65.8532 23.2051L78.2782 14.5042L78.2784 14.5041C78.4845 14.3597 78.6931 14.2215 78.9039 14.0892C78.693 14.2215 78.4844 14.3598 78.2782 14.5042M81.7148 12.7207L62.7099 1.74819C58.6419 -0.600477 53.4401 0.793325 51.0915 4.86133C48.7428 8.92933 50.1366 14.1311 54.2046 16.4797L65.8532 23.2051" fill="#F0402C" data-darkreader-inline-fill="" style="--darkreader-inline-fill: #f14e3c;"></path><path fill-rule="evenodd" clip-rule="evenodd" d="M89.3727 32.4478L63.4957 50.5688C59.648 53.2633 54.3445 52.3283 51.6501 48.4806C48.9556 44.6329 49.8905 39.3295 53.7382 36.635L79.6153 18.5141C83.463 15.8196 88.7665 16.7545 91.4609 20.6022C94.1553 24.4499 93.2204 29.7534 89.3727 32.4478Z" fill="#F0402C" data-darkreader-inline-fill="" style="--darkreader-inline-fill: #f14e3c;"></path><path fill-rule="evenodd" clip-rule="evenodd" d="M13.4769 38.8978C14.2489 38.5398 15.0002 38.109 15.7216 37.6038L28.1467 28.9028L39.7946 35.6277C43.8626 37.9764 45.2564 43.1781 42.9078 47.2461C40.5591 51.3141 35.3574 52.708 31.2894 50.3593L12.2852 39.3872C12.3117 39.3777 12.3382 39.368 12.3647 39.3583C12.7394 39.2211 13.1105 39.0676 13.4769 38.8978Z" fill="#F0402C" data-darkreader-inline-fill="" style="--darkreader-inline-fill: #f14e3c;"></path><path fill-rule="evenodd" clip-rule="evenodd" d="M4.62727 19.6601L30.5043 1.5391C34.352 -1.15534 39.6555 -0.220436 42.3499 3.62727C45.0444 7.47498 44.1095 12.7784 40.2617 15.4729L14.3847 33.5938C10.537 36.2883 5.23354 35.3534 2.5391 31.5057C-0.155343 27.658 0.779564 22.3545 4.62727 19.6601Z" fill="#F0402C" data-darkreader-inline-fill="" style="--darkreader-inline-fill: #f14e3c;"></path><path fill-rule="evenodd" clip-rule="evenodd" d="M65.8532 23.2051L78.2782 14.5042L78.2784 14.5041C78.4845 14.3597 78.6931 14.2215 78.9039 14.0892C78.693 14.2215 78.4844 14.3598 78.2782 14.5042M81.7148 12.7207L62.7099 1.74819C58.6419 -0.600477 53.4401 0.793325 51.0915 4.86133C48.7428 8.92933 50.1366 14.1311 54.2046 16.4797L65.8532 23.2051" fill="#F0402C" data-darkreader-inline-fill="" style="--darkreader-inline-fill: #f14e3c;"></path><path fill-rule="evenodd" clip-rule="evenodd" d="M89.3727 32.4478L63.4957 50.5688C59.648 53.2633 54.3445 52.3283 51.6501 48.4806C48.9556 44.6329 49.8905 39.3295 53.7383 36.635L79.6153 18.5141C83.463 15.8196 88.7665 16.7545 91.4609 20.6022C94.1553 24.4499 93.2204 29.7534 89.3727 32.4478Z" fill="#F0402C" data-darkreader-inline-fill="" style="--darkreader-inline-fill: #f14e3c;"></path></g><defs><clipPath id="clip0"><rect width="94" height="52" fill="white" data-darkreader-inline-fill="" style="--darkreader-inline-fill: #e8e6e3;"></rect></clipPath></defs></svg>
